<?xml version="1.0" encoding="UTF-8" standalone="no"?>
<svg width="42px" height="50px" viewBox="0 0 42 50" version="1.1" xmlns="http://www.w3.org/2000/svg" xmlns:xlink="http://www.w3.org/1999/xlink">
  <!-- Generator: Sketch 39.1 (31720) - http://www.bohemiancoding.com/sketch -->
  <title>Group</title>
  <desc>Created with Sketch.</desc>
  <defs></defs>
  <g id="Page-1" stroke="none" stroke-width="1" fill="none" fill-rule="evenodd">
    <g id="Group" fill="#4D4D4C">
      <path d="M30.369,4.62 L38.46,13.378 L30.369,13.378 L30.369,4.62 L30.369,4.62 Z M41.2,11.871 L31.33,1.187 C31.042,0.876 30.639,0.699 30.216,0.699 L14.079,0.699 C11.73,0.699 9.82,2.609 9.82,4.957 L9.82,6.913 L12.856,6.913 L12.856,4.957 C12.856,4.283 13.405,3.735 14.079,3.735 L28.951,3.735 L28.951,14.087 C28.951,14.478 29.269,14.795 29.66,14.795 L38.567,14.795 L38.567,37.727 C38.567,38.401 38.019,38.949 37.345,38.949 L33.542,38.949 L33.542,41.985 L37.345,41.985 C39.692,41.985 41.604,40.074 41.604,37.727 L41.604,12.901 C41.604,12.519 41.459,12.151 41.2,11.871 L41.2,11.871 Z" id="Fill-220"></path>
      <path d="M27.782,46.763 L4.516,46.763 C3.842,46.763 3.295,46.214 3.295,45.54 L3.295,12.77 C3.295,12.096 3.842,11.548 4.516,11.548 L19.989,11.548 L20.132,11.703 L20.132,21.341 C20.132,21.733 20.449,22.05 20.841,22.05 L29.005,22.05 L29.005,45.54 C29.005,46.214 28.456,46.763 27.782,46.763 L27.782,46.763 Z M28.382,20.633 L21.55,20.633 L21.55,13.238 L28.382,20.633 L28.382,20.633 Z M21.769,9 C21.48,8.69 21.076,8.513 20.653,8.513 L4.516,8.513 C2.168,8.513 0.259,10.423 0.259,12.77 L0.259,45.54 C0.259,47.888 2.168,49.798 4.516,49.798 L27.782,49.798 C30.13,49.798 32.041,47.888 32.041,45.54 L32.041,20.714 C32.041,20.332 31.897,19.964 31.638,19.684 L21.769,9 L21.769,9 Z" id="Fill-221"></path>
    </g>
  </g>
</svg>
